<?xml version="1.0" encoding="utf-8"?>
<!-- Generator: Adobe Illustrator 16.0.0, SVG Export Plug-In . SVG Version: 6.00 Build 0)  -->
<!DOCTYPE svg PUBLIC "-//W3C//DTD SVG 1.0//EN" "http://www.w3.org/TR/2001/REC-SVG-20010904/DTD/svg10.dtd">
<svg version="1.0" id="Layer_1" xmlns="http://www.w3.org/2000/svg" xmlns:xlink="http://www.w3.org/1999/xlink" x="0px" y="0px"
	 width="391.369px" height="449.771px" viewBox="0 0 391.369 449.771" enable-background="new 0 0 391.369 449.771"
	 xml:space="preserve">
<g>
	<polygon fill="#D91016" points="381.098,331.196 195.518,438.341 9.938,331.196 9.938,116.907 195.518,9.763 381.098,116.907 	"/>
	<g>
		<path fill="#1D1D1B" d="M362.121,314.174v-4.03c0-6.595-4.848-12.062-11.164-13.063v-19.134v-6.231
			c0-1.148-0.93-2.077-2.078-2.077h-33.754v-48.556h2.164c0.859,0,1.557-0.697,1.557-1.558s-0.697-1.558-1.557-1.558h-2.164v-10.516
			c0-1.148-0.93-2.078-2.078-2.078h-28.041v-45.309c0-1.147-0.93-2.078-2.078-2.078h-1.385v-10.213c0-1.088-0.84-1.973-1.904-2.061
			c0.127-0.418,0.217-0.853,0.217-1.313c0-2.481-2.02-4.5-4.5-4.5s-4.502,2.019-4.502,4.5c0,0.453,0.09,0.883,0.215,1.295h-0.604
			c-1.146,0-2.078,0.931-2.078,2.078v3.032l-57.412-23.864l-4.385-3.678v-3.187h0.26c0.885,0,1.672-0.56,1.963-1.395
			c0.289-0.836,0.02-1.764-0.674-2.311l-10.376-8.206v-16.65c0-1.147-0.93-2.077-2.077-2.077s-2.077,0.93-2.077,2.077v16.65
			l-10.376,8.206c-0.694,0.547-0.964,1.475-0.673,2.311c0.289,0.835,1.076,1.395,1.961,1.395h0.26v3.187l-4.384,3.678
			l-57.414,23.864v-3.032c0-1.147-0.931-2.078-2.076-2.078h-0.604c0.125-0.412,0.213-0.842,0.213-1.295c0-2.481-2.02-4.5-4.5-4.5
			c-2.481,0-4.501,2.019-4.501,4.5c0,0.46,0.091,0.895,0.218,1.313c-1.064,0.088-1.905,0.973-1.905,2.061v10.213h-1.385
			c-1.147,0-2.077,0.931-2.077,2.078v45.309H78.322c-1.147,0-2.076,0.93-2.076,2.078v10.516h-2.165c-0.86,0-1.558,0.697-1.558,1.558
			s0.697,1.558,1.558,1.558h2.165v48.556H42.49c-1.147,0-2.076,0.929-2.076,2.077v6.231v19.134
			c-6.317,1.002-11.166,6.469-11.166,13.063v4.03c-6.965,0.93-12.333,6.453-12.333,13.106c0,1.146,0.93,2.077,2.077,2.077H42.49
			h10.906h22.33h28.23c0.002,0,0.004,0,0.006,0c0.004,0,0.008,0,0.012,0h91.711h91.709c0.004,0,0.008,0,0.012,0s0.006,0,0.008,0
			h28.229h22.33h10.906h23.498c1.148,0,2.078-0.931,2.078-2.077C374.455,320.627,369.088,315.104,362.121,314.174z M195.685,111.819
			l6.504,5.143h-6.504h-6.503L195.685,111.819z M188.192,125.823c0.471-0.395,0.742-0.978,0.742-1.591v-5.193h6.751h6.75v5.193
			c0,0.613,0.271,1.196,0.742,1.591l2.236,1.876h-9.729h-9.729L188.192,125.823z M202.85,157.986h-7.165h-7.165l7.165-25.421
			L202.85,157.986z M195.685,325.203h-73.031l0.48-1.047h72.551h72.551l0.48,1.047H195.685z M195.685,206.022h51.442v2.497
			c-5.441,0.857-9.506,5.086-10.75,11.005h-40.692h-40.692c-1.243-5.919-5.309-10.147-10.749-11.005v-2.497H195.685z
			 M182.096,202.906v-29.168h13.589h13.588v29.168h-13.588H182.096z M223.469,286.515c-5.408,0-9.807,4.398-9.807,9.807v18.236
			h-8.17v-18.236c0-5.408-4.398-9.807-9.807-9.807c-5.408,0-9.808,4.398-9.808,9.807v18.236h-8.17v-18.236
			c0-5.408-4.397-9.807-9.806-9.807s-9.808,4.398-9.808,9.807v18.236h-5.339v-34.534h3.203h22.33h6.231h11.165h11.165h6.232h22.33
			h3.203v34.534h-5.34v-18.236C233.275,290.913,228.875,286.515,223.469,286.515z M201.338,296.321v18.236h-1.297h-4.356h-4.355
			h-1.298v-18.236c0-3.116,2.535-5.651,5.653-5.651C198.803,290.67,201.338,293.205,201.338,296.321z M186.597,275.869v-27.264
			c0-5.012,4.077-9.088,9.088-9.088c5.01,0,9.088,4.076,9.088,9.088v27.264h-9.088H186.597z M237.488,275.869v-27.264
			c0-7.302-5.939-13.242-13.242-13.242c-7.301,0-13.242,5.94-13.242,13.242v27.264h-2.076v-27.264
			c0-7.302-5.939-13.242-13.243-13.242c-7.303,0-13.242,5.94-13.242,13.242v27.264h-2.077v-27.264
			c0-7.302-5.941-13.242-13.242-13.242c-7.303,0-13.243,5.94-13.243,13.242v27.264h-2.813v-47.257h44.617h44.618v47.257H237.488z
			 M195.685,226.535h-44.617v-1.039h2.25c1.059,0,1.922-0.794,2.051-1.817h40.316H236c0.131,1.023,0.994,1.817,2.051,1.817h2.252
			v1.039H195.685z M160.171,318.712h10.786h4.674h12.323h3.375h4.355h4.356h3.375h12.322h4.674h10.787h20.371h14.158l0.275,0.599
			h-70.319h-70.318l0.274-0.599h14.157H160.171z M195.685,321.388h71.274l0.318,0.691h-71.592h-71.594l0.318-0.691H195.685z
			 M280.852,171.661h-85.167h-85.166v-2.249h85.166h85.167V171.661z M280.852,166.295h-85.167h-85.166v-4.155h1.385h9.002h74.779
			h74.78h9h1.387V166.295z M181.055,229.939c-2.48,0-4.499,2.184-4.499,4.869c0,2.685,2.019,4.868,4.499,4.868
			c2.482,0,4.502-2.184,4.502-4.868C185.557,232.123,183.538,229.939,181.055,229.939z M181.055,237.599
			c-1.334,0-2.422-1.252-2.422-2.791s1.088-2.791,2.422-2.791c1.337,0,2.424,1.252,2.424,2.791S182.392,237.599,181.055,237.599z
			 M200.125,183.757c0-2.664-1.986-4.828-4.44-4.863c-2.454,0.035-4.44,2.199-4.44,4.863c0,2.663,1.986,4.826,4.44,4.861
			C198.139,188.583,200.125,186.42,200.125,183.757z M193.322,183.757c0-1.516,1.055-2.748,2.363-2.785
			c1.309,0.037,2.363,1.27,2.363,2.785c0,1.515-1.055,2.747-2.363,2.783C194.376,186.504,193.322,185.272,193.322,183.757z
			 M210.314,229.939c-2.482,0-4.5,2.184-4.5,4.869c0,2.685,2.018,4.868,4.5,4.868c2.48,0,4.5-2.184,4.5-4.868
			C214.814,232.123,212.795,229.939,210.314,229.939z M210.314,237.599c-1.336,0-2.424-1.252-2.424-2.791s1.088-2.791,2.424-2.791
			s2.422,1.252,2.422,2.791S211.65,237.599,210.314,237.599z"/>
		<path fill="#FFFFFF" d="M105.001,275.869v-2.077h1.363v2.077H105.001z M106.365,221.082H80.4v5.453h25.965V221.082z
			 M106.365,209.527H80.4v8.439h25.965V209.527z M83.172,248.345c0-0.789,0.448-1.512,1.156-1.86l8.132-4.025
			c0.581-0.288,1.263-0.288,1.843,0l8.132,4.025c0.709,0.349,1.156,1.071,1.156,1.86v21.292h2.773v-41.026H80.4v41.026h2.772
			V248.345z M118.055,145.695c0.239-0.375,0.382-0.818,0.382-1.295c0-1.336-1.086-2.423-2.422-2.423
			c-1.338,0-2.424,1.087-2.424,2.423c0,0.477,0.143,0.92,0.383,1.295H118.055z M191.358,129.775h-1.338l-32.704,28.211h14.751
			L191.358,129.775z M137.732,157.986h16.404l32.704-28.211h-0.369L137.732,157.986z M177.039,132.835l-54.057,22.469v2.682h10.604
			L177.039,132.835z M113.981,157.986h4.847v-4.074c0-0.004,0-0.007,0-0.011v-4.051h-4.847V157.986z M33.402,310.144v5.972
			c0,1.146-0.931,2.077-2.076,2.077c-4.851,0-8.924,2.996-9.987,7.011h19.075v-23.908C36.398,302.236,33.402,305.847,33.402,310.144
			z M83.839,275.869h1.449v-2.077H85.25h-1.41V275.869z M76.246,273.792h-1.127v2.077h1.127V273.792z M81.763,273.792H80.4v2.077
			h1.363V273.792z M73.042,273.792h-1.342v2.077h1.342V273.792z M99.436,249.634l-6.054-2.995l-6.055,2.997v20.001h12.108V249.634z
			 M95.869,275.869v-2.077h-1.447v2.077H95.869z M99.397,275.869v-2.077h-1.45v2.077H99.397z M92.343,275.869v-2.077h-1.45v2.077
			H92.343z M88.816,275.869v-2.077h-1.45v2.077H88.816z M181.055,232.017c-1.334,0-2.422,1.252-2.422,2.791s1.088,2.791,2.422,2.791
			c1.337,0,2.424-1.252,2.424-2.791S182.392,232.017,181.055,232.017z M69.625,273.792h-1.344v2.077h1.344V273.792z
			 M144.244,208.519c5.44,0.857,9.506,5.086,10.749,11.005h40.692h40.692c1.244-5.919,5.309-10.147,10.75-11.005v-2.497h-51.442
			h-51.441V208.519z M190.032,296.321v18.236h1.298h4.355h4.356h1.297v-18.236c0-3.116-2.535-5.651-5.653-5.651
			C192.567,290.67,190.032,293.205,190.032,296.321z M124.41,321.388l-0.318,0.691h71.594h71.592l-0.318-0.691h-71.274H124.41z
			 M162.249,296.321v18.236h8.709h2.597v-18.236c0-3.116-2.536-5.651-5.652-5.651C164.785,290.67,162.249,293.205,162.249,296.321z
			 M110.519,169.412v2.249h85.166h85.167v-2.249h-85.167H110.519z M167.124,239.517c-5.012,0-9.088,4.076-9.088,9.088v27.264h18.176
			v-27.264C176.211,243.593,172.134,239.517,167.124,239.517z M194.314,129.775h-0.438l-19.291,28.211h11.779L194.314,129.775z
			 M101.474,273.792v2.077h1.45v-2.077h-1.411H101.474z M117.053,183.757c0,1.525,0.437,2.471,0.691,2.74
			c0.256-0.27,0.692-1.215,0.692-2.74c0-1.527-0.437-2.471-0.692-2.741C117.49,181.287,117.053,182.232,117.053,183.757z
			 M119.988,202.906h-9.469v-29.168h15.362v11.062l-3.909-0.774c-0.334-0.065-0.678,0.036-0.922,0.271s-0.357,0.575-0.305,0.91
			l1.748,11.111C121.151,198.181,120.256,200.439,119.988,202.906z M120.515,183.757c0-2.821-1.166-4.869-2.771-4.869
			s-2.769,2.048-2.769,4.869c0,2.82,1.164,4.868,2.769,4.868S120.515,186.578,120.515,183.757z M119.897,208.519v-2.497h-9.378
			v1.429v8.096C112.434,211.754,115.773,209.169,119.897,208.519z M138.042,183.757c0,0.28,0.034,0.553,0.087,0.818l3.19-0.633
			c0.002-0.062,0.011-0.124,0.011-0.186c0-1.646-0.867-2.792-1.646-2.792C138.909,180.965,138.042,182.112,138.042,183.757z
			 M127.121,187.13c-0.066,0.014-0.13,0.041-0.201,0.041c-0.186,0-0.351-0.063-0.502-0.148l-3.391-0.67l1.252,7.948
			c2.113-1.921,4.828-3.079,7.791-3.079c2.945,0,5.65,1.145,7.758,3.045l1.243-7.906l-3.347,0.66
			c-0.068,0.014-0.137,0.02-0.203,0.02c-0.195,0-0.383-0.057-0.546-0.156c-0.366-0.012-0.708-0.203-0.886-0.536L132.137,179
			l-4.085,7.598C127.865,186.943,127.501,187.133,127.121,187.13z M127.958,182.383l3.092-5.749
			c0.018-0.352,0.194-0.688,0.527-0.867c0.505-0.274,1.136-0.084,1.408,0.422l3.198,5.951c0.501-1.908,1.853-3.252,3.501-3.252
			c2.088,0,3.723,2.139,3.723,4.869c0,0.24-0.018,0.486-0.049,0.732c0.046,0.149,0.061,0.309,0.037,0.467l-1.781,11.314
			c1.361,1.871,2.267,4.146,2.537,6.635h7.045v-29.168h-23.238V182.383z M110.519,225.465v46.25v4.154h2.077v-50.374h-1.774
			C110.718,225.496,110.619,225.48,110.519,225.465z M180.018,173.738v29.168h-26.743v-29.168H180.018z M170.238,183.757
			c0-2.686-2.021-4.869-4.502-4.869s-4.5,2.184-4.5,4.869c0,2.684,2.02,4.868,4.5,4.868S170.238,186.441,170.238,183.757z
			 M122.982,248.605v27.264h18.176v-27.264c0-5.012-4.077-9.088-9.088-9.088C127.058,239.517,122.982,243.593,122.982,248.605z
			 M132.07,286.515c5.408,0,9.807,4.398,9.807,9.807v18.236h7.764v-34.534h-6.404h-22.33h-7.444v45.18h4.62l4.181-9.09v-19.792
			C122.262,290.913,126.662,286.515,132.07,286.515z M66.204,273.792h-1.341v2.077h1.341V273.792z M132.07,202.646
			c-0.553,0-1.904,1.783-1.904,5.085c0,3.303,1.352,5.085,1.904,5.085s1.903-1.782,1.903-5.085
			C133.973,204.429,132.623,202.646,132.07,202.646z M151.104,221.341h-38.067c0.717-5.29,4.191-8.828,8.938-8.828
			c1.147,0,2.077-0.93,2.077-2.077v-5.972c0-5.012,3.597-9.088,8.019-9.088s8.02,4.076,8.02,9.088v5.972
			c0,1.147,0.929,2.077,2.077,2.077C146.912,212.513,150.386,216.051,151.104,221.341z M137.089,207.731c0-4.675-2.158-8.2-5.02-8.2
			s-5.02,3.525-5.02,8.2s2.158,8.2,5.02,8.2S137.089,212.406,137.089,207.731z M146.914,275.869v-50.374h-30.162v50.374h2.076
			v-27.264c0-7.302,5.939-13.242,13.242-13.242c7.301,0,13.242,5.94,13.242,13.242v27.264H146.914z M55.948,273.792h-1.341v2.077
			h1.341V273.792z M45.691,273.792h-1.123v2.077h1.123V273.792z M64.56,288.852c-5.011,0-9.087,4.076-9.087,9.088v27.264h18.175
			v-27.264C73.648,292.928,69.572,288.852,64.56,288.852z M49.111,273.792h-1.342v2.077h1.342V273.792z M59.368,273.792h-1.343
			v2.077h1.343V273.792z M52.529,273.792h-1.342v2.077h1.342V273.792z M62.786,273.792h-1.341v2.077h1.341V273.792z M86.523,324.156
			l-0.48,1.047H101l-0.379-1.047H86.523z M165.736,180.965c-1.337,0-2.422,1.253-2.422,2.792c0,1.538,1.085,2.791,2.422,2.791
			s2.424-1.253,2.424-2.791C168.16,182.218,167.073,180.965,165.736,180.965z M87.48,322.079h12.387l-0.251-0.691H87.798
			L87.48,322.079z M78.322,280.023H44.568v18.955v26.225h6.75v-27.264c0-7.303,5.939-13.242,13.242-13.242
			c7.301,0,13.243,5.939,13.243,13.242v27.264h3.667l4.152-9.022v-19.859c0-5.408,3.714-9.807,8.279-9.807
			c4.564,0,8.277,4.398,8.277,9.807v19.948l3.24,8.934h4.926v-45.18h-1.903H78.322z M88.755,319.311h10.107l-0.217-0.599H89.03
			L88.755,319.311z M93.902,290.67c-2.236,0-4.125,2.588-4.125,5.651v18.236h8.248v-18.236
			C98.025,293.258,96.136,290.67,93.902,290.67z M132.07,290.67c-3.117,0-5.652,2.535-5.652,5.651v18.236h11.305v-18.236
			C137.722,293.205,135.186,290.67,132.07,290.67z M286.369,273.792h-1.363v2.077h1.363V273.792z M310.971,221.082h-25.965v5.453
			h25.965V221.082z M310.971,209.527h-25.965v8.439h25.965V209.527z M287.779,248.345c0-0.789,0.447-1.512,1.156-1.86l8.131-4.025
			c0.58-0.288,1.262-0.288,1.842,0l8.133,4.025c0.709,0.349,1.156,1.071,1.156,1.86v21.292h2.773v-41.026h-25.965v41.026h2.773
			V248.345z M277.396,145.695c0.24-0.375,0.381-0.818,0.381-1.295c0-1.336-1.084-2.423-2.422-2.423
			c-1.336,0-2.424,1.087-2.424,2.423c0,0.477,0.145,0.92,0.383,1.295H277.396z M234.055,157.986l-32.703-28.211h-1.34l19.291,28.211
			H234.055z M253.639,157.986l-48.74-28.211h-0.369l32.705,28.211H253.639z M268.387,157.986v-2.682l-54.055-22.469l43.453,25.15
			H268.387z M277.389,149.85h-4.846v4.051c0,0.004,0,0.007,0,0.011v4.074h4.846V149.85z M360.043,318.192
			c-1.145,0-2.076-0.931-2.076-2.077v-5.972c0-4.297-2.996-7.907-7.01-8.849v23.908h19.074
			C368.967,321.188,364.895,318.192,360.043,318.192z M306.082,273.792v2.077h1.447v-2.077h-1.408H306.082z M316.25,273.792h-1.125
			v2.077h1.125V273.792z M310.971,275.869v-2.077h-1.363v2.077H310.971z M319.668,273.792h-1.342v2.077h1.342V273.792z
			 M304.043,249.636l-6.055-2.997l-6.055,2.995v20.003h12.109V249.636z M296.949,275.869v-2.077h-1.447v2.077H296.949z
			 M293.424,275.869v-2.077h-1.451v2.077H293.424z M300.477,275.869v-2.077h-1.449v2.077H300.477z M304.004,275.869v-2.077h-1.449
			v2.077H304.004z M210.314,232.017c-1.336,0-2.424,1.252-2.424,2.791s1.088,2.791,2.424,2.791s2.422-1.252,2.422-2.791
			S211.65,232.017,210.314,232.017z M323.088,273.792h-1.342v2.077h1.342V273.792z M238.615,314.558v-34.534h-3.203h-22.33h-6.232
			h-11.165H184.52h-6.231h-22.33h-3.203v34.534h5.339v-18.236c0-5.408,4.399-9.807,9.808-9.807s9.806,4.398,9.806,9.807v18.236h8.17
			v-18.236c0-5.408,4.399-9.807,9.808-9.807c5.409,0,9.807,4.398,9.807,9.807v18.236h8.17v-18.236c0-5.408,4.398-9.807,9.807-9.807
			c5.406,0,9.807,4.398,9.807,9.807v18.236H238.615z M236,223.678h-40.315h-40.316c-0.129,1.023-0.992,1.817-2.051,1.817h-2.25
			v1.039h44.617h44.618v-1.039h-2.252C236.994,225.496,236.131,224.702,236,223.678z M240.303,275.869h-2.814v-27.264
			c0-7.302-5.939-13.242-13.242-13.242c-7.301,0-13.242,5.94-13.242,13.242v27.264h-2.076v-27.264
			c0-7.302-5.939-13.242-13.243-13.242c-7.303,0-13.242,5.94-13.242,13.242v27.264h-2.077v-27.264
			c0-7.302-5.941-13.242-13.242-13.242c-7.303,0-13.243,5.94-13.243,13.242v27.264h-2.813v-47.257h44.617h44.618V275.869z
			 M185.557,234.808c0-2.686-2.02-4.869-4.502-4.869c-2.48,0-4.499,2.184-4.499,4.869c0,2.685,2.019,4.868,4.499,4.868
			C183.538,239.676,185.557,237.493,185.557,234.808z M214.814,234.808c0-2.686-2.02-4.869-4.5-4.869c-2.482,0-4.5,2.184-4.5,4.869
			c0,2.685,2.018,4.868,4.5,4.868C212.795,239.676,214.814,237.493,214.814,234.808z M204.773,275.869v-27.264
			c0-5.012-4.078-9.088-9.088-9.088c-5.011,0-9.088,4.076-9.088,9.088v27.264h9.088H204.773z M195.685,324.156h-72.551l-0.48,1.047
			h73.031h73.032l-0.48-1.047H195.685z M231.199,318.712h-10.787h-4.674h-12.322h-3.375h-4.356h-4.355h-3.375h-12.323h-4.674
			h-10.786h-20.373h-14.157l-0.274,0.599h70.318h70.319l-0.275-0.599H251.57H231.199z M198.048,183.757
			c0-1.516-1.055-2.748-2.363-2.785c-1.309,0.037-2.363,1.27-2.363,2.785c0,1.515,1.055,2.747,2.363,2.783
			C196.994,186.504,198.048,185.272,198.048,183.757z M217.816,296.321v18.236h2.596h8.709v-18.236c0-3.116-2.535-5.651-5.652-5.651
			S217.816,293.205,217.816,296.321z M205.414,127.699l-2.236-1.876c-0.471-0.395-0.742-0.978-0.742-1.591v-5.193h-6.75h-6.751
			v5.193c0,0.613-0.271,1.196-0.742,1.591l-2.236,1.876h9.729H205.414z M224.246,239.517c-5.01,0-9.088,4.076-9.088,9.088v27.264
			h18.176v-27.264C233.334,243.593,229.258,239.517,224.246,239.517z M202.189,116.961l-6.504-5.143l-6.503,5.143h6.503H202.189z
			 M216.785,157.986l-19.291-28.211h-0.438l7.95,28.211H216.785z M195.685,202.906h-13.589v-29.168h13.589h13.588v29.168H195.685z
			 M195.685,188.619c2.454-0.035,4.44-2.198,4.44-4.861c0-2.664-1.986-4.828-4.44-4.863c-2.454,0.035-4.44,2.199-4.44,4.863
			C191.245,186.42,193.231,188.583,195.685,188.619z M270.465,162.14h-74.78h-74.779h-9.002h-1.385v4.155h85.166h85.167v-4.155
			h-1.387H270.465z M202.85,157.986l-7.165-25.421l-7.165,25.421h7.165H202.85z M288.445,275.869h1.451v-2.077h-0.041h-1.41V275.869
			z M274.316,183.757c0-1.525-0.438-2.471-0.691-2.741c-0.256,0.271-0.693,1.214-0.693,2.741c0,1.525,0.438,2.471,0.693,2.74
			C273.879,186.228,274.316,185.283,274.316,183.757z M265.488,173.738h15.363v29.168h-9.471c-0.268-2.467-1.162-4.725-2.504-6.588
			l1.748-11.111c0.053-0.335-0.061-0.675-0.307-0.91c-0.242-0.235-0.588-0.337-0.92-0.271l-3.91,0.774V173.738z M270.854,183.757
			c0,2.82,1.168,4.868,2.771,4.868c1.605,0,2.77-2.048,2.77-4.868c0-2.821-1.164-4.869-2.77-4.869
			C272.021,178.888,270.854,180.936,270.854,183.757z M271.473,208.519c4.125,0.65,7.463,3.235,9.379,7.027v-8.096v-1.429h-9.379
			V208.519z M251.686,180.965c-0.779,0-1.646,1.146-1.646,2.792c0,0.062,0.008,0.124,0.01,0.186l3.191,0.633
			c0.053-0.266,0.088-0.538,0.088-0.818C253.328,182.112,252.461,180.965,251.686,180.965z M259.301,191.222
			c2.961,0,5.678,1.158,7.791,3.079l1.252-7.948l-3.391,0.67c-0.152,0.086-0.318,0.148-0.502,0.148
			c-0.072,0-0.135-0.027-0.201-0.041c-0.383,0.003-0.744-0.188-0.932-0.533L259.232,179l-3.951,7.349
			c-0.178,0.333-0.521,0.524-0.887,0.536c-0.162,0.1-0.352,0.156-0.545,0.156c-0.066,0-0.137-0.006-0.203-0.02l-3.348-0.66
			l1.244,7.906C253.65,192.367,256.354,191.222,259.301,191.222z M240.172,202.906h7.047c0.27-2.488,1.176-4.764,2.537-6.635
			l-1.781-11.314c-0.023-0.158-0.01-0.317,0.037-0.467c-0.031-0.246-0.049-0.492-0.049-0.732c0-2.73,1.635-4.869,3.723-4.869
			c1.648,0,3,1.344,3.5,3.252l3.199-5.951c0.271-0.506,0.902-0.696,1.408-0.422c0.332,0.179,0.51,0.516,0.527,0.867l3.092,5.749
			v-8.646h-23.24V202.906z M278.773,225.496v50.374h2.078v-4.154v-46.25c-0.1,0.015-0.199,0.03-0.303,0.03H278.773z
			 M238.096,173.738v29.168h-26.744v-29.168H238.096z M230.133,183.757c0-2.686-2.018-4.869-4.498-4.869s-4.502,2.184-4.502,4.869
			c0,2.684,2.021,4.868,4.502,4.868S230.133,186.441,230.133,183.757z M250.213,248.605v27.264h18.174v-27.264
			c0-5.012-4.076-9.088-9.086-9.088C254.289,239.517,250.213,243.593,250.213,248.605z M248.135,280.023h-6.404v34.534h7.764
			v-18.236c0-5.408,4.398-9.807,9.807-9.807c5.406,0,9.807,4.398,9.807,9.807v19.792l4.182,9.09h4.619v-45.18h-7.443H248.135z
			 M326.506,273.792h-1.34v2.077h1.34V273.792z M259.301,202.646c-0.553,0-1.904,1.783-1.904,5.085c0,3.303,1.352,5.085,1.904,5.085
			c0.551,0,1.904-1.782,1.904-5.085C261.205,204.429,259.852,202.646,259.301,202.646z M278.334,221.341h-38.068
			c0.719-5.29,4.193-8.828,8.938-8.828c1.148,0,2.078-0.93,2.078-2.077v-5.972c0-5.012,3.596-9.088,8.02-9.088
			c4.422,0,8.018,4.076,8.018,9.088v5.972c0,1.147,0.93,2.077,2.078,2.077C274.141,212.513,277.615,216.051,278.334,221.341z
			 M264.32,207.731c0-4.675-2.158-8.2-5.02-8.2c-2.863,0-5.02,3.525-5.02,8.2s2.156,8.2,5.02,8.2
			C262.162,215.931,264.32,212.406,264.32,207.731z M274.619,275.869v-50.374h-30.162v50.374h1.6v-27.264
			c0-7.302,5.943-13.242,13.244-13.242c7.303,0,13.242,5.94,13.242,13.242v27.264H274.619z M336.762,273.792h-1.34v2.077h1.34
			V273.792z M345.678,275.869h1.123v-2.077h-1.123V275.869z M326.809,288.852c-5.01,0-9.088,4.076-9.088,9.088v27.264h18.176
			v-27.264C335.896,292.928,331.82,288.852,326.809,288.852z M343.602,273.792h-1.342v2.077h1.342V273.792z M333.344,273.792h-1.342
			v2.077h1.342V273.792z M340.182,273.792h-1.342v2.077h1.342V273.792z M329.924,273.792h-1.34v2.077h1.34V273.792z M290.75,324.156
			l-0.379,1.047h14.957l-0.482-1.047H290.75z M225.635,180.965c-1.338,0-2.424,1.253-2.424,2.792c0,1.538,1.086,2.791,2.424,2.791
			c1.336,0,2.422-1.253,2.422-2.791C228.057,182.218,226.971,180.965,225.635,180.965z M291.502,322.079h12.387l-0.318-0.691
			h-11.816L291.502,322.079z M282.928,280.023h-1.904v45.18h4.928l3.238-8.934v-19.948c0-5.408,3.715-9.807,8.279-9.807
			s8.279,4.398,8.279,9.807v19.859l4.152,9.022h3.666v-27.264c0-7.303,5.941-13.242,13.242-13.242
			c7.303,0,13.242,5.939,13.242,13.242v27.264h6.75v-26.225v-18.955h-33.754H282.928z M292.508,319.311h10.107l-0.275-0.599h-9.615
			L292.508,319.311z M297.469,290.67c-2.236,0-4.123,2.588-4.123,5.651v18.236h8.246v-18.236
			C301.592,293.258,299.705,290.67,297.469,290.67z M259.301,290.67c-3.117,0-5.652,2.535-5.652,5.651v18.236h11.305v-18.236
			C264.953,293.205,262.418,290.67,259.301,290.67z"/>
		<circle fill="none" stroke="#1D1D1B" stroke-width="3" stroke-miterlimit="10" cx="195.518" cy="259.154" r="3.435"/>
	</g>
	<circle fill="none" cx="197.186" cy="225.744" r="0.525"/>
	<g>
		<path fill="#FFFFFF" d="M272.496,81.618l-75.882-43.811c-0.004-0.002-0.008-0.003-0.011-0.005
			c-0.089-0.05-0.183-0.089-0.276-0.124c-0.014-0.005-0.023-0.015-0.036-0.02c-0.005-0.001-0.009,0-0.014-0.002
			c-0.025-0.009-0.052-0.014-0.077-0.021c-0.041-0.012-0.082-0.018-0.123-0.027c-0.1-0.021-0.198-0.035-0.3-0.039
			c-0.022-0.002-0.045-0.008-0.067-0.008c-0.027-0.001-0.055,0.003-0.082,0.004c-0.128,0.004-0.255,0.02-0.381,0.05
			c-0.015,0.003-0.029,0.003-0.044,0.007c-0.011,0.003-0.02,0.008-0.03,0.011c-0.016,0.005-0.029,0.013-0.045,0.018
			c-0.113,0.035-0.223,0.081-0.328,0.14c-0.014,0.007-0.029,0.01-0.043,0.018l-74.661,43.105c-0.889,0.512-1.191,1.647-0.68,2.536
			c0.513,0.89,1.65,1.193,2.537,0.679l66.353-38.309l-28.22,36.002c-0.633,0.809-0.491,1.977,0.314,2.608
			c0.811,0.632,1.977,0.492,2.608-0.315l30.819-39.32v38.433c0,1.025,0.832,1.856,1.857,1.856c1.024,0,1.856-0.831,1.856-1.856
			V44.793l30.82,39.32c0.365,0.467,0.91,0.711,1.461,0.711c0.4,0,0.805-0.129,1.146-0.396c0.807-0.632,0.947-1.8,0.314-2.608
			l-28.219-36.002l67.576,39.016c0.291,0.169,0.611,0.248,0.926,0.248c0.641,0,1.266-0.332,1.609-0.928
			C273.689,83.266,273.385,82.131,272.496,81.618z"/>
		<path fill="#FFFFFF" d="M271.953,364.545c-0.512-0.89-1.65-1.193-2.537-0.68l-66.35,38.307l28.219-36
			c0.633-0.808,0.49-1.976-0.316-2.607c-0.809-0.631-1.975-0.491-2.607,0.315l-30.82,39.319v-38.432
			c0-1.025-0.832-1.857-1.856-1.857c-1.025,0-1.857,0.832-1.857,1.857v38.431l-30.819-39.318c-0.632-0.807-1.798-0.948-2.608-0.315
			c-0.806,0.632-0.947,1.8-0.314,2.607l28.218,36l-67.573-39.013c-0.887-0.513-2.023-0.209-2.537,0.68
			c-0.512,0.889-0.209,2.023,0.68,2.536l75.884,43.812c0.018,0.01,0.038,0.013,0.057,0.022c0.065,0.035,0.133,0.063,0.202,0.091
			c0.022,0.009,0.04,0.025,0.063,0.034c0.02,0.006,0.039,0.004,0.059,0.01c0.035,0.011,0.066,0.024,0.102,0.033
			c0.145,0.035,0.291,0.057,0.439,0.058l0.007,0.001h0.001l0,0c0,0,0.002-0.001,0.003-0.001c0.15,0,0.299-0.021,0.444-0.058
			c0.031-0.008,0.061-0.021,0.092-0.03c0.041-0.013,0.08-0.029,0.121-0.045c0.072-0.027,0.143-0.056,0.211-0.093
			c0.019-0.01,0.039-0.013,0.057-0.022l74.66-43.105C272.162,366.568,272.465,365.434,271.953,364.545z"/>
		<circle fill="#FFFFFF" cx="276.961" cy="361.049" r="2.328"/>
		<circle fill="#FFFFFF" cx="113.448" cy="361.049" r="2.328"/>
	</g>
	<g>
		<path fill="#1D1D1B" d="M152.171,360.757c-0.331-0.03-0.674-0.237-0.866-0.571c-0.32-0.555-0.124-1.24,0.43-1.561
			c0.277-0.16,0.528-0.176,0.723-0.158c1.046,0.117,2.043-0.016,2.984-0.559c0.874-0.505,1.2-1.156,0.872-1.725l-0.016-0.027
			c-0.313-0.541-0.805-0.626-2.666-0.105c-2.243,0.63-3.816,0.818-4.929-1.108l-0.017-0.028c-1.017-1.76-0.275-3.741,1.707-4.886
			c1.179-0.681,2.38-0.968,3.574-0.918c0.315,0.003,0.719,0.157,0.959,0.573c0.32,0.556,0.125,1.242-0.43,1.562
			c-0.208,0.12-0.406,0.16-0.628,0.159c-0.947-0.008-1.748,0.142-2.414,0.525c-0.818,0.473-1.031,1.095-0.76,1.565l0.016,0.028
			c0.369,0.638,0.905,0.605,2.83,0.066c2.264-0.623,3.781-0.557,4.758,1.135l0.016,0.027c1.113,1.927,0.268,3.857-1.825,5.065
			C155.214,360.554,153.701,360.909,152.171,360.757z"/>
		<path fill="#1D1D1B" d="M233.148,351.482l0.016-0.027c1.592-2.759,5.074-3.761,8.068-2.033c2.994,1.729,3.854,5.201,2.262,7.96
			l-0.018,0.027c-1.592,2.758-5.072,3.762-8.066,2.032C232.416,357.713,231.555,354.241,233.148,351.482z M241.229,356.148
			l0.018-0.027c0.959-1.664,0.541-3.754-1.178-4.747c-1.719-0.992-3.695-0.322-4.656,1.342l-0.016,0.027
			c-0.961,1.664-0.541,3.754,1.178,4.746S240.27,357.812,241.229,356.148z"/>
		<path fill="#1D1D1B" d="M191.945,344.15c0-0.688,0.544-1.232,1.232-1.232h3.346c2.672,0,4.29,1.584,4.29,3.873v0.033
			c0,2.592-2.018,3.938-4.53,3.938h-1.873v2.225c0,0.688-0.544,1.232-1.232,1.232s-1.232-0.545-1.232-1.232V344.15z
			 M196.363,348.568c1.232,0,1.953-0.736,1.953-1.697v-0.031c0-1.104-0.769-1.697-2.001-1.697h-1.905v3.426H196.363z"/>
	</g>
	<path fill="#1D1D1B" d="M384.668,111.844L199.09,4.7c-2.107-1.216-4.703-1.216-6.81,0L6.701,111.844
		c-2.107,1.217-3.404,3.464-3.404,5.896v214.29c0,2.432,1.297,4.68,3.404,5.896L192.28,445.07c1.054,0.609,2.23,0.913,3.405,0.913
		s2.352-0.305,3.405-0.913l185.578-107.145c2.107-1.216,3.404-3.464,3.404-5.896v-214.29
		C388.072,115.308,386.775,113.061,384.668,111.844z M374.455,328.099l-178.77,103.214L16.914,328.099V121.671L195.685,18.459
		l178.77,103.212V328.099z"/>
	<g>
		<path fill="#FFFFFF" d="M128.765,110.397c0.793,0,1.436-0.645,1.436-1.438v-7.088l5.822,7.635
			c0.396,0.512,0.813,0.852,1.512,0.852h0.096c0.813,0,1.455-0.642,1.455-1.456V98.375c0-0.794-0.643-1.438-1.438-1.438
			c-0.793,0-1.436,0.644-1.436,1.438v6.823l-5.614-7.371c-0.397-0.511-0.813-0.852-1.512-0.852h-0.303
			c-0.813,0-1.456,0.645-1.456,1.457v10.527C127.328,109.752,127.97,110.397,128.765,110.397z"/>
		<path fill="#FFFFFF" d="M148.695,110.508c4.083,0,7.051-3.079,7.051-6.841v-0.038c0-3.762-2.93-6.805-7.012-6.805
			c-4.084,0-7.051,3.082-7.051,6.843v0.037C141.683,107.465,144.613,110.508,148.695,110.508z M144.726,103.629
			c0-2.27,1.625-4.121,3.969-4.121s4.008,1.891,4.008,4.159v0.037c0,2.269-1.626,4.12-3.969,4.12c-2.345,0-4.008-1.891-4.008-4.157
			V103.629z"/>
		<path fill="#FFFFFF" d="M159.799,110.282h3.704c4.159,0,7.031-2.891,7.031-6.614v-0.038c0-3.723-2.872-6.578-7.031-6.578h-3.704
			c-0.813,0-1.456,0.643-1.456,1.455v10.32C158.343,109.639,158.986,110.282,159.799,110.282z M161.254,99.678h2.249
			c2.382,0,3.988,1.646,3.988,3.989v0.037c0,2.344-1.606,3.95-3.988,3.95h-2.249V99.678z"/>
		<path fill="#FFFFFF" d="M174.588,110.282h7.429c0.718,0,1.304-0.565,1.304-1.284s-0.586-1.306-1.304-1.306h-5.992v-2.777h5.048
			c0.718,0,1.303-0.566,1.303-1.285s-0.585-1.305-1.303-1.305h-5.048v-2.684h5.897c0.719,0,1.305-0.568,1.305-1.285
			c0-0.719-0.586-1.305-1.305-1.305h-7.334c-0.813,0-1.455,0.643-1.455,1.455v10.32
			C173.133,109.639,173.775,110.282,174.588,110.282z"/>
		<path fill="#FFFFFF" d="M185.54,108.883c1.475,1.059,3.232,1.588,4.971,1.588c2.854,0,4.858-1.474,4.858-4.102v-0.038
			c0-2.306-1.512-3.269-4.196-3.97c-2.287-0.586-2.854-0.869-2.854-1.738v-0.037c0-0.644,0.586-1.152,1.701-1.152
			c0.907,0,1.814,0.319,2.777,0.888c0.228,0.132,0.455,0.208,0.738,0.208c0.756,0,1.361-0.587,1.361-1.343
			c0-0.567-0.322-0.964-0.643-1.152c-1.191-0.756-2.59-1.173-4.197-1.173c-2.703,0-4.631,1.588-4.631,3.989v0.036
			c0,2.628,1.721,3.365,4.385,4.045c2.212,0.568,2.666,0.945,2.666,1.683v0.038c0,0.776-0.719,1.248-1.909,1.248
			c-1.285,0-2.382-0.453-3.384-1.19c-0.188-0.132-0.453-0.265-0.831-0.265c-0.757,0-1.361,0.586-1.361,1.342
			C184.992,108.242,185.219,108.657,185.54,108.883z"/>
		<path fill="#FFFFFF" d="M204.107,110.508c2.117,0,3.516-0.623,4.707-1.662c0.264-0.228,0.49-0.586,0.49-1.04
			c0-0.737-0.623-1.343-1.359-1.343c-0.342,0-0.643,0.133-0.871,0.322c-0.83,0.662-1.645,1.039-2.871,1.039
			c-2.27,0-3.838-1.891-3.838-4.157v-0.038c0-2.27,1.605-4.121,3.838-4.121c1.039,0,1.889,0.341,2.701,0.945
			c0.209,0.133,0.473,0.283,0.871,0.283c0.793,0,1.436-0.623,1.436-1.417c0-0.511-0.264-0.927-0.566-1.153
			c-1.098-0.813-2.439-1.342-4.424-1.342c-4.064,0-6.899,3.082-6.899,6.843v0.037C197.322,107.504,200.215,110.508,204.107,110.508z
			"/>
		<path fill="#FFFFFF" d="M213.32,110.397c0.813,0,1.455-0.645,1.455-1.457v-3.969h5.369v3.969c0,0.813,0.643,1.457,1.455,1.457
			s1.455-0.645,1.455-1.457V98.393c0-0.813-0.643-1.456-1.455-1.456s-1.455,0.644-1.455,1.456v3.895h-5.369v-3.895
			c0-0.813-0.643-1.456-1.455-1.456s-1.455,0.644-1.455,1.456v10.547C211.865,109.752,212.508,110.397,213.32,110.397z"/>
		<path fill="#FFFFFF" d="M232.666,110.508c4.082,0,7.049-3.079,7.049-6.841v-0.038c0-3.762-2.93-6.805-7.012-6.805
			c-4.084,0-7.051,3.082-7.051,6.843v0.037C225.652,107.465,228.582,110.508,232.666,110.508z M228.695,103.629
			c0-2.27,1.627-4.121,3.971-4.121c2.342,0,4.006,1.891,4.006,4.159v0.037c0,2.269-1.625,4.12-3.969,4.12s-4.008-1.891-4.008-4.157
			V103.629z"/>
		<path fill="#FFFFFF" d="M248.74,110.508c4.082,0,7.049-3.079,7.049-6.841v-0.038c0-3.762-2.93-6.805-7.012-6.805
			s-7.051,3.082-7.051,6.843v0.037C241.727,107.465,244.656,110.508,248.74,110.508z M244.77,103.629
			c0-2.27,1.627-4.121,3.971-4.121s4.008,1.891,4.008,4.159v0.037c0,2.269-1.627,4.12-3.971,4.12s-4.008-1.891-4.008-4.157V103.629z
			"/>
		<path fill="#FFFFFF" d="M259.844,110.282h6.842c0.738,0,1.324-0.586,1.324-1.322c0-0.738-0.586-1.322-1.324-1.322h-5.387v-9.244
			c0-0.813-0.643-1.456-1.455-1.456s-1.455,0.644-1.455,1.456v10.434C258.389,109.639,259.031,110.282,259.844,110.282z"/>
	</g>
</g>
</svg>
